<svg width="280" height="281" viewBox="0 0 280 281" fill="none" xmlns="http://www.w3.org/2000/svg">
<path id="Ellipse 1" d="M280 140.5C280 218.096 217.32 281 140 281C62.6801 281 0 218.096 0 140.5C0 62.904 62.6801 0 140 0C217.32 0 280 62.904 280 140.5Z" fill="url(#paint0_linear_0_1)"/>
<path id="gulabi" d="M83.16 187.36C82.2 187.36 81.48 186.8 81 185.68C82.3867 182.693 83.7733 179.493 85.16 176.08C86.6 172.667 87.96 169.173 89.24 165.6C90.5733 162.027 91.6933 158.533 92.6 155.12C91.1067 156.293 89.5867 157.573 88.04 158.96C86.4933 160.347 85.0267 161.947 83.64 163.76C81.88 165.947 80.52 168.533 79.56 171.52C78.6533 174.56 78.2 177.36 78.2 179.92C78.2 183.013 78.84 185.333 80.12 186.88C80.28 187.04 80.36 187.147 80.36 187.2C80.36 187.2 80.3333 187.2 80.28 187.2C80.28 187.253 80.2533 187.28 80.2 187.28C79.9867 187.28 79.72 187.2 79.4 187.04C79.1333 186.88 78.8667 186.64 78.6 186.32C77.5333 185.2 76.7333 183.84 76.2 182.24C75.72 180.693 75.48 179.013 75.48 177.2C75.48 175.12 75.88 173.013 76.68 170.88C77.48 168.747 78.6533 166.747 80.2 164.88C82.44 162.16 84.6533 159.893 86.84 158.08C89.0267 156.32 91.1333 154.587 93.16 152.88C93.96 149.733 94.52 146.667 94.84 143.68C95.1067 141.333 95.2667 139.28 95.32 137.52C95.4267 135.76 95.48 134.213 95.48 132.88C95.48 132.027 95.4533 131.253 95.4 130.56C95.3467 129.867 95.2933 129.227 95.24 128.64L94.6 128.8C93.6933 130.24 92.6 131.947 91.32 133.92C90.04 135.893 88.6533 137.84 87.16 139.76C85.6667 141.627 84.1733 143.2 82.68 144.48C81.1867 145.76 79.7733 146.4 78.44 146.4C77.32 146.4 76.44 146.027 75.8 145.28C75.16 144.48 74.84 143.573 74.84 142.56C74.84 142.293 74.8933 141.947 75 141.52C75.48 139.067 76.4133 136.773 77.8 134.64C79.24 132.453 80.8667 130.533 82.68 128.88C84.5467 127.227 86.3867 125.92 88.2 124.96C90.0133 124 91.56 123.52 92.84 123.52C93.8 123.52 94.7067 123.733 95.56 124.16C96.4667 124.533 97.32 125.173 98.12 126.08C98.28 126.24 98.36 126.427 98.36 126.64C98.36 127.12 97.8533 127.573 96.84 128C97.2667 128.8 97.5333 129.84 97.64 131.12C97.8 132.347 97.88 133.653 97.88 135.04C97.88 137.333 97.7467 139.733 97.48 142.24C97.2133 144.747 96.8667 147.28 96.44 149.84C97.8267 148.453 99.16 146.88 100.44 145.12C101.72 143.36 102.947 141.253 104.12 138.8C104.44 138.16 104.733 137.84 105 137.84C105.213 137.84 105.32 138.027 105.32 138.4C105.32 138.987 105.053 139.84 104.52 140.96C104.04 142.08 103.453 143.227 102.76 144.4C102.067 145.573 101.373 146.587 100.68 147.44C99.9867 148.293 99.24 149.147 98.44 150C97.6933 150.8 96.8933 151.573 96.04 152.32C95.3467 156 94.5467 159.6 93.64 163.12C92.7333 166.64 91.8267 169.867 90.92 172.8C90.0133 175.733 89.1867 178.187 88.44 180.16C87.7467 182.187 87.24 183.52 86.92 184.16C86.28 185.333 85.64 186.16 85 186.64C84.36 187.12 83.7467 187.36 83.16 187.36ZM79.48 143.12C80.2267 143.12 81.16 142.693 82.28 141.84C83.4 140.987 84.5733 139.92 85.8 138.64C87.0267 137.307 88.2 135.893 89.32 134.4C90.4933 132.907 91.5067 131.52 92.36 130.24C93.2667 128.907 93.88 127.84 94.2 127.04C93.08 127.04 91.8533 127.44 90.52 128.24C89.24 128.987 87.96 129.973 86.68 131.2C85.4 132.427 84.2 133.707 83.08 135.04C81.96 136.373 81.0267 137.627 80.28 138.8C79.5867 139.973 79.1333 140.88 78.92 141.52C78.76 141.893 78.68 142.187 78.68 142.4C78.68 142.88 78.9467 143.12 79.48 143.12ZM119.776 154.08C118.87 154.08 117.99 153.653 117.136 152.8C116.336 151.893 115.936 150.747 115.936 149.36C115.936 146.747 116.016 144.16 116.176 141.6C116.39 138.987 116.603 136.667 116.816 134.64C117.083 132.56 117.27 131.04 117.376 130.08C116.843 132.32 116.176 134.56 115.376 136.8C114.576 139.04 113.776 141.147 112.976 143.12C112.176 145.04 111.483 146.667 110.896 148C110.31 149.28 109.963 150.107 109.856 150.48C109.643 151.067 109.19 151.36 108.496 151.36C107.963 151.36 107.35 151.2 106.656 150.88C105.963 150.56 105.35 150.187 104.816 149.76C104.336 149.28 104.07 148.88 104.016 148.56C103.963 148.293 103.936 148 103.936 147.68C103.936 147.307 103.936 146.933 103.936 146.56C103.936 144.107 104.096 141.76 104.416 139.52C104.736 137.227 105.03 134.96 105.296 132.72C105.403 131.707 105.563 130.533 105.776 129.2C105.99 127.867 106.096 126.587 106.096 125.36C106.096 124.827 106.07 124.32 106.016 123.84C105.963 123.307 105.856 122.853 105.696 122.48C105.483 122.053 104.95 121.733 104.096 121.52C103.243 121.253 102.523 121.12 101.936 121.12C101.296 121.12 100.976 120.96 100.976 120.64C100.976 120.053 101.536 119.707 102.656 119.6C103.67 119.493 104.603 119.387 105.456 119.28C106.31 119.12 107.136 119.04 107.936 119.04C108.683 119.04 109.27 119.12 109.696 119.28C110.176 119.44 110.416 119.733 110.416 120.16C110.416 122.187 110.23 124.64 109.856 127.52C109.483 130.347 109.083 133.253 108.656 136.24C108.283 139.227 108.096 141.92 108.096 144.32C108.096 145.067 108.123 145.787 108.176 146.48C108.23 147.12 108.39 147.44 108.656 147.44C109.03 147.44 109.536 146.853 110.176 145.68C110.816 144.453 111.51 142.827 112.256 140.8C113.056 138.773 113.83 136.613 114.576 134.32C115.323 131.973 115.99 129.733 116.576 127.6C117.163 125.467 117.616 123.68 117.936 122.24C117.99 121.973 118.203 121.84 118.576 121.84C119.163 121.84 119.803 122.16 120.496 122.8C121.243 123.387 121.776 124.053 122.096 124.8C121.936 125.44 121.723 126.613 121.456 128.32C121.19 130.027 120.923 131.947 120.656 134.08C120.39 136.213 120.176 138.32 120.016 140.4C119.856 142.427 119.776 144.133 119.776 145.52C119.776 147.173 119.936 148.16 120.256 148.48C120.63 148.747 121.003 148.88 121.376 148.88C121.803 148.88 122.283 148.507 122.816 147.76C123.403 147.013 123.99 146.08 124.576 144.96C125.163 143.84 125.75 142.747 126.336 141.68C126.923 140.56 127.43 139.627 127.856 138.88C128.336 138.133 128.71 137.76 128.976 137.76C129.19 137.76 129.296 137.893 129.296 138.16C129.296 138.32 129.216 138.613 129.056 139.04C128.843 139.573 128.47 140.453 127.936 141.68C127.456 142.853 126.87 144.16 126.176 145.6C125.483 146.987 124.763 148.32 124.016 149.6C123.27 150.88 122.523 151.947 121.776 152.8C121.03 153.653 120.363 154.08 119.776 154.08ZM138.57 156.96C137.823 156.96 137.13 156.853 136.49 156.64C134.463 156.053 132.837 154.907 131.61 153.2C130.437 151.493 129.583 149.413 129.05 146.96C128.57 144.507 128.33 141.92 128.33 139.2C128.33 137.707 128.383 136.213 128.49 134.72C128.597 133.227 128.757 131.76 128.97 130.32C129.397 127.28 130.01 123.92 130.81 120.24C131.663 116.56 132.623 112.827 133.69 109.04C134.757 105.253 135.85 101.68 136.97 98.32C137.397 97.3067 137.77 96.48 138.09 95.84C138.41 95.2 138.917 94.9867 139.61 95.2C140.143 95.36 140.677 95.6267 141.21 96C141.797 96.32 142.25 96.6933 142.57 97.12C144.01 98.7733 144.73 101.093 144.73 104.08C144.73 106.8 144.197 109.867 143.13 113.28C142.063 116.64 140.65 120 138.89 123.36C137.183 126.72 135.263 129.813 133.13 132.64C132.65 135.733 132.41 138.667 132.41 141.44C132.41 143.627 132.57 145.653 132.89 147.52C133.263 149.387 133.823 151.013 134.57 152.4C135.21 153.573 135.903 154.373 136.65 154.8C137.45 155.227 138.197 155.44 138.89 155.44C139.637 155.44 140.303 155.307 140.89 155.04C141.53 154.773 142.037 154.56 142.41 154.4C142.837 154.133 143.21 154 143.53 154C143.957 154 144.01 154.213 143.69 154.64C143.477 154.907 142.917 155.36 142.01 156C141.103 156.64 139.957 156.96 138.57 156.96ZM133.69 129.2C135.397 126.533 136.943 123.733 138.33 120.8C139.77 117.813 140.917 114.907 141.77 112.08C142.677 109.2 143.13 106.64 143.13 104.4C143.13 103.547 143.05 102.747 142.89 102C142.783 101.253 142.57 100.587 142.25 100C140.437 104.533 138.757 109.36 137.21 114.48C135.717 119.547 134.543 124.453 133.69 129.2ZM158.11 150.8C157.523 150.8 156.883 150.587 156.19 150.16C155.497 149.68 155.017 149.173 154.75 148.64C154.75 147.413 154.91 145.733 155.23 143.6C155.55 141.467 155.897 139.28 156.27 137.04C156.697 134.747 157.07 132.8 157.39 131.2C156.43 132.693 155.337 134.32 154.11 136.08C152.883 137.84 151.63 139.493 150.35 141.04C149.07 142.533 147.763 143.787 146.43 144.8C145.15 145.76 143.95 146.24 142.83 146.24C141.71 146.24 140.83 145.867 140.19 145.12C139.55 144.32 139.23 143.413 139.23 142.4C139.23 142.133 139.283 141.787 139.39 141.36C139.87 138.907 140.803 136.613 142.19 134.48C143.63 132.293 145.257 130.373 147.07 128.72C148.937 127.067 150.777 125.76 152.59 124.8C154.403 123.84 155.95 123.36 157.23 123.36C158.19 123.36 159.097 123.573 159.95 124C160.857 124.373 161.71 125.013 162.51 125.92C162.67 126.08 162.75 126.267 162.75 126.48C162.75 126.747 162.59 127.013 162.27 127.28C161.897 128.56 161.497 130.107 161.07 131.92C160.697 133.68 160.323 135.52 159.95 137.44C159.63 139.307 159.363 141.04 159.15 142.64C158.937 144.24 158.83 145.467 158.83 146.32C158.83 146.907 158.91 147.2 159.07 147.2C159.497 147.2 160.03 146.747 160.67 145.84C161.363 144.933 162.03 143.893 162.67 142.72C163.31 141.547 163.87 140.507 164.35 139.6C164.883 138.693 165.203 138.24 165.31 138.24C165.47 138.24 165.55 138.453 165.55 138.88C165.55 139.787 165.257 140.907 164.67 142.24C164.083 143.573 163.363 144.907 162.51 146.24C161.71 147.52 160.883 148.613 160.03 149.52C159.23 150.373 158.59 150.8 158.11 150.8ZM143.47 143.28C144.217 143.28 145.15 142.853 146.27 142C147.443 141.147 148.643 140.053 149.87 138.72C151.15 137.387 152.377 135.973 153.55 134.48C154.777 132.987 155.817 131.573 156.67 130.24C157.577 128.853 158.217 127.733 158.59 126.88C157.523 126.88 156.297 127.28 154.91 128.08C153.523 128.827 152.11 129.813 150.67 131.04C149.23 132.213 147.897 133.52 146.67 134.96C145.443 136.347 144.457 137.707 143.71 139.04C142.963 140.373 142.59 141.52 142.59 142.48C142.59 143.013 142.883 143.28 143.47 143.28ZM171.443 149.76C170.589 149.653 169.683 149.28 168.723 148.64C167.763 147.947 167.283 147.173 167.283 146.32C167.283 146.107 167.309 145.92 167.363 145.76C168.109 143.093 168.696 139.973 169.123 136.4C169.549 132.827 169.869 129.067 170.083 125.12C170.349 121.173 170.589 117.333 170.803 113.6C171.016 109.867 171.283 106.48 171.603 103.44C171.976 100.4 172.483 98.0267 173.123 96.32C173.229 95.36 173.603 94.88 174.243 94.88C174.989 94.88 175.869 95.44 176.883 96.56C177.896 97.68 178.456 99.0133 178.563 100.56C178.243 102.64 177.816 105.173 177.283 108.16C176.749 111.093 176.163 114.213 175.523 117.52C174.936 120.773 174.349 124 173.763 127.2C173.176 130.4 172.643 133.333 172.163 136C171.683 138.613 171.309 140.693 171.043 142.24C171.576 141.28 172.323 140.08 173.283 138.64C174.243 137.147 175.336 135.6 176.563 134C177.789 132.4 179.069 130.907 180.403 129.52C181.736 128.08 183.043 126.933 184.323 126.08C185.603 125.173 186.749 124.72 187.763 124.72C188.989 124.72 189.949 125.2 190.643 126.16C191.389 127.067 191.763 128.133 191.763 129.36C191.763 130.427 191.389 131.787 190.643 133.44C189.896 135.04 188.856 136.747 187.523 138.56C186.243 140.32 184.723 142.027 182.963 143.68C181.256 145.28 179.416 146.64 177.443 147.76C175.469 148.88 173.469 149.547 171.443 149.76ZM170.403 146.96C172.109 146.64 173.949 145.893 175.923 144.72C177.896 143.547 179.736 142.107 181.443 140.4C183.203 138.693 184.616 136.827 185.682 134.8C186.803 132.773 187.363 130.773 187.363 128.8C187.363 128 187.043 127.6 186.403 127.6C185.656 127.6 184.696 128.133 183.523 129.2C182.349 130.213 181.069 131.547 179.683 133.2C178.349 134.8 177.043 136.507 175.763 138.32C174.483 140.08 173.363 141.76 172.403 143.36C171.443 144.907 170.776 146.107 170.403 146.96ZM201.198 127.84C200.878 127.84 200.531 127.787 200.158 127.68C199.838 127.52 199.518 127.36 199.198 127.2C198.984 127.04 198.878 126.827 198.878 126.56C198.878 126.08 199.171 125.493 199.758 124.8C200.344 124.053 201.091 123.413 201.997 122.88C202.904 122.347 203.784 122.08 204.638 122.08C205.118 122.08 205.358 122.213 205.358 122.48C205.358 122.693 205.118 122.96 204.638 123.28C204.051 123.707 203.624 124.293 203.358 125.04C203.091 125.787 202.824 126.453 202.558 127.04C202.291 127.573 201.838 127.84 201.198 127.84ZM196.878 152C195.864 152 195.171 151.68 194.798 151.04C194.424 150.4 194.238 149.413 194.238 148.08C194.238 147.387 194.264 146.64 194.318 145.84C194.371 145.04 194.478 144.133 194.638 143.12C195.118 139.493 195.651 136.613 196.238 134.48C196.824 132.293 197.571 131.2 198.478 131.2C199.224 131.2 199.891 131.627 200.478 132.48C201.064 133.333 201.464 133.947 201.678 134.32C201.304 135.013 200.798 136.133 200.158 137.68C199.571 139.227 199.038 140.853 198.558 142.56C198.078 144.267 197.838 145.76 197.838 147.04C197.838 148.32 198.131 148.96 198.718 148.96C199.198 148.96 199.731 148.693 200.318 148.16C200.958 147.627 201.544 147.04 202.078 146.4C202.664 145.76 203.038 145.307 203.197 145.04C205.011 142.32 206.158 140.24 206.638 138.8C207.171 137.36 207.678 136.64 208.158 136.64C208.371 136.64 208.478 136.8 208.478 137.12C208.478 137.333 208.424 137.573 208.318 137.84C208.264 138.053 208.184 138.347 208.078 138.72C207.758 139.573 207.251 140.747 206.558 142.24C205.864 143.68 205.011 145.147 203.998 146.64C203.038 148.133 201.944 149.413 200.718 150.48C199.544 151.493 198.264 152 196.878 152Z" fill="#F8E6E6"/>
<defs>
<linearGradient id="paint0_linear_0_1" x1="140" y1="0" x2="140" y2="281" gradientUnits="userSpaceOnUse">
<stop stop-color="#7200CC"/>
<stop offset="1" stop-color="#2A7EBC"/>
</linearGradient>
</defs>
</svg>
